<svg xmlns="http://www.w3.org/2000/svg" viewBox="0 0 1200 1400" width="1200" height="1400" role="presentation">
  <defs>
    <linearGradient id="bg-domestic" x1="0" y1="0" x2="0.7" y2="1"><stop offset="0%" stop-color="#0F2B45"/><stop offset="52%" stop-color="#173B5E"/><stop offset="100%" stop-color="#0B1F33"/></linearGradient>
    <radialGradient id="glow-109">
      <stop offset="0%" stop-color="#7FB0DA" stop-opacity="0.3"/>
      <stop offset="100%" stop-color="#7FB0DA" stop-opacity="0"/>
    </radialGradient>
    <radialGradient id="vig-domestic" cx="0.5" cy="0.45" r="0.78">
      <stop offset="55%" stop-color="#000000" stop-opacity="0"/>
      <stop offset="100%" stop-color="#050F1A" stop-opacity="0.55"/>
    </radialGradient>
    <filter id="grain-domestic" x="0" y="0" width="100%" height="100%">
      <feTurbulence type="fractalNoise" baseFrequency="0.85" numOctaves="3" seed="109"/>
      <feColorMatrix type="saturate" values="0"/>
      <feComponentTransfer><feFuncA type="linear" slope="0.14"/></feComponentTransfer>
    </filter>
  </defs>
  <rect width="1200" height="1400" fill="url(#bg-domestic)"/>
  <g><rect x="-48.0" y="883.1" width="60.4" height="432.9" fill="#FFFFFF" opacity="0.05"/><rect x="-48.0" y="883.1" width="60.4" height="432.9" fill="none" stroke="#FFFFFF" stroke-opacity="0.3" stroke-width="0.9"/><rect x="30.2" y="914.2" width="77.3" height="401.8" fill="#FFFFFF" opacity="0.05"/><rect x="30.2" y="914.2" width="77.3" height="401.8" fill="none" stroke="#FFFFFF" stroke-opacity="0.3" stroke-width="0.9"/><rect x="125.9" y="897.4" width="49.2" height="418.6" fill="#FFFFFF" opacity="0.05"/><rect x="125.9" y="897.4" width="49.2" height="418.6" fill="none" stroke="#FFFFFF" stroke-opacity="0.3" stroke-width="0.9"/><rect x="185.3" y="374.7" width="57.4" height="941.3" fill="#FFFFFF" opacity="0.05"/><rect x="185.3" y="374.7" width="57.4" height="941.3" fill="none" stroke="#FFFFFF" stroke-opacity="0.3" stroke-width="0.9"/><rect x="249.8" y="887.1" width="89.0" height="428.9" fill="#FFFFFF" opacity="0.05"/><rect x="249.8" y="887.1" width="89.0" height="428.9" fill="none" stroke="#FFFFFF" stroke-opacity="0.3" stroke-width="0.9"/><rect x="349.2" y="656.7" width="107.6" height="659.3" fill="#FFFFFF" opacity="0.05"/><rect x="349.2" y="656.7" width="107.6" height="659.3" fill="none" stroke="#FFFFFF" stroke-opacity="0.3" stroke-width="0.9"/><rect x="474.0" y="826.5" width="105.1" height="489.5" fill="#FFFFFF" opacity="0.05"/><rect x="474.0" y="826.5" width="105.1" height="489.5" fill="none" stroke="#FFFFFF" stroke-opacity="0.3" stroke-width="0.9"/><rect x="588.0" y="907.8" width="84.6" height="408.2" fill="#FFFFFF" opacity="0.05"/><rect x="588.0" y="907.8" width="84.6" height="408.2" fill="none" stroke="#FFFFFF" stroke-opacity="0.3" stroke-width="0.9"/><rect x="687.3" y="363.1" width="47.3" height="952.9" fill="#FFFFFF" opacity="0.05"/><rect x="687.3" y="363.1" width="47.3" height="952.9" fill="none" stroke="#FFFFFF" stroke-opacity="0.3" stroke-width="0.9"/><rect x="753.1" y="846.9" width="79.4" height="469.1" fill="#FFFFFF" opacity="0.05"/><rect x="753.1" y="846.9" width="79.4" height="469.1" fill="none" stroke="#FFFFFF" stroke-opacity="0.3" stroke-width="0.9"/><rect x="841.0" y="383.1" width="52.4" height="932.9" fill="#FFFFFF" opacity="0.05"/><rect x="841.0" y="383.1" width="52.4" height="932.9" fill="none" stroke="#FFFFFF" stroke-opacity="0.3" stroke-width="0.9"/><rect x="899.9" y="876.3" width="66.3" height="439.7" fill="#FFFFFF" opacity="0.05"/><rect x="899.9" y="876.3" width="66.3" height="439.7" fill="none" stroke="#FFFFFF" stroke-opacity="0.3" stroke-width="0.9"/><rect x="978.1" y="917.6" width="45.8" height="398.4" fill="#FFFFFF" opacity="0.05"/><rect x="978.1" y="917.6" width="45.8" height="398.4" fill="none" stroke="#FFFFFF" stroke-opacity="0.3" stroke-width="0.9"/><rect x="1031.8" y="874.1" width="72.0" height="441.9" fill="#FFFFFF" opacity="0.05"/><rect x="1031.8" y="874.1" width="72.0" height="441.9" fill="none" stroke="#FFFFFF" stroke-opacity="0.3" stroke-width="0.9"/><rect x="1118.3" y="880.2" width="102.5" height="435.8" fill="#FFFFFF" opacity="0.05"/><rect x="1118.3" y="880.2" width="102.5" height="435.8" fill="none" stroke="#FFFFFF" stroke-opacity="0.3" stroke-width="0.9"/></g><g><rect x="-44.1" y="1270.2" width="7.2" height="27.2" fill="#FFFFFF" opacity="0.41"/><rect x="-29.0" y="1146.6" width="7.2" height="27.2" fill="#FFFFFF" opacity="0.26"/><rect x="-29.0" y="1270.2" width="7.2" height="27.2" fill="#FFFFFF" opacity="0.44"/><rect x="-13.9" y="961.1" width="7.2" height="27.2" fill="#FFFFFF" opacity="0.43"/><rect x="-13.9" y="1146.6" width="7.2" height="27.2" fill="#FFFFFF" opacity="0.29"/><rect x="1.2" y="899.2" width="7.2" height="27.2" fill="#FFFFFF" opacity="0.29"/><rect x="1.2" y="1022.9" width="7.2" height="27.2" fill="#FFFFFF" opacity="0.27"/><rect x="1.2" y="1270.2" width="7.2" height="27.2" fill="#FFFFFF" opacity="0.39"/><rect x="34.3" y="1132.5" width="7.4" height="29.5" fill="#FFFFFF" opacity="0.18"/><rect x="49.7" y="931.6" width="7.4" height="29.5" fill="#FFFFFF" opacity="0.19"/><rect x="49.7" y="1065.5" width="7.4" height="29.5" fill="#FFFFFF" opacity="0.28"/><rect x="65.2" y="1132.5" width="7.4" height="29.5" fill="#FFFFFF" opacity="0.37"/><rect x="65.2" y="1199.5" width="7.4" height="29.5" fill="#FFFFFF" opacity="0.19"/><rect x="80.7" y="931.6" width="7.4" height="29.5" fill="#FFFFFF" opacity="0.17"/><rect x="80.7" y="1065.5" width="7.4" height="29.5" fill="#FFFFFF" opacity="0.32"/><rect x="96.1" y="931.6" width="7.4" height="29.5" fill="#FFFFFF" opacity="0.41"/><rect x="96.1" y="1266.4" width="7.4" height="29.5" fill="#FFFFFF" opacity="0.21"/><rect x="130.2" y="912.9" width="7.9" height="26.3" fill="#FFFFFF" opacity="0.31"/><rect x="130.2" y="1092.3" width="7.9" height="26.3" fill="#FFFFFF" opacity="0.25"/><rect x="130.2" y="1211.9" width="7.9" height="26.3" fill="#FFFFFF" opacity="0.37"/><rect x="146.6" y="1211.9" width="7.9" height="26.3" fill="#FFFFFF" opacity="0.33"/><rect x="190.3" y="579.3" width="9.2" height="27.6" fill="#FFFFFF" opacity="0.28"/><rect x="190.3" y="767.5" width="9.2" height="27.6" fill="#FFFFFF" opacity="0.42"/><rect x="190.3" y="830.3" width="9.2" height="27.6" fill="#FFFFFF" opacity="0.23"/><rect x="190.3" y="1018.6" width="9.2" height="27.6" fill="#FFFFFF" opacity="0.23"/><rect x="190.3" y="1144.1" width="9.2" height="27.6" fill="#FFFFFF" opacity="0.19"/><rect x="190.3" y="1269.6" width="9.2" height="27.6" fill="#FFFFFF" opacity="0.31"/><rect x="209.4" y="579.3" width="9.2" height="27.6" fill="#FFFFFF" opacity="0.42"/><rect x="209.4" y="767.5" width="9.2" height="27.6" fill="#FFFFFF" opacity="0.20"/><rect x="209.4" y="955.8" width="9.2" height="27.6" fill="#FFFFFF" opacity="0.32"/><rect x="209.4" y="1144.1" width="9.2" height="27.6" fill="#FFFFFF" opacity="0.30"/><rect x="228.5" y="391.0" width="9.2" height="27.6" fill="#FFFFFF" opacity="0.19"/><rect x="228.5" y="453.8" width="9.2" height="27.6" fill="#FFFFFF" opacity="0.30"/><rect x="228.5" y="767.5" width="9.2" height="27.6" fill="#FFFFFF" opacity="0.38"/><rect x="228.5" y="1018.6" width="9.2" height="27.6" fill="#FFFFFF" opacity="0.19"/><rect x="228.5" y="1081.3" width="9.2" height="27.6" fill="#FFFFFF" opacity="0.39"/><rect x="228.5" y="1269.6" width="9.2" height="27.6" fill="#FFFFFF" opacity="0.46"/><rect x="254.4" y="1209.4" width="8.5" height="27.0" fill="#FFFFFF" opacity="0.24"/><rect x="272.2" y="964.3" width="8.5" height="27.0" fill="#FFFFFF" opacity="0.26"/><rect x="272.2" y="1148.1" width="8.5" height="27.0" fill="#FFFFFF" opacity="0.20"/><rect x="290.0" y="1148.1" width="8.5" height="27.0" fill="#FFFFFF" opacity="0.43"/><rect x="307.8" y="1086.9" width="8.5" height="27.0" fill="#FFFFFF" opacity="0.36"/><rect x="307.8" y="1209.4" width="8.5" height="27.0" fill="#FFFFFF" opacity="0.39"/><rect x="325.6" y="903.1" width="8.5" height="27.0" fill="#FFFFFF" opacity="0.16"/><rect x="353.9" y="937.6" width="8.6" height="29.0" fill="#FFFFFF" opacity="0.37"/><rect x="353.9" y="1003.5" width="8.6" height="29.0" fill="#FFFFFF" opacity="0.26"/><rect x="353.9" y="1201.3" width="8.6" height="29.0" fill="#FFFFFF" opacity="0.37"/><rect x="389.7" y="673.9" width="8.6" height="29.0" fill="#FFFFFF" opacity="0.44"/><rect x="389.7" y="805.7" width="8.6" height="29.0" fill="#FFFFFF" opacity="0.46"/><rect x="389.7" y="871.7" width="8.6" height="29.0" fill="#FFFFFF" opacity="0.46"/><rect x="389.7" y="937.6" width="8.6" height="29.0" fill="#FFFFFF" opacity="0.17"/><rect x="389.7" y="1267.2" width="8.6" height="29.0" fill="#FFFFFF" opacity="0.45"/><rect x="407.7" y="1135.4" width="8.6" height="29.0" fill="#FFFFFF" opacity="0.17"/><rect x="425.6" y="673.9" width="8.6" height="29.0" fill="#FFFFFF" opacity="0.37"/><rect x="425.6" y="871.7" width="8.6" height="29.0" fill="#FFFFFF" opacity="0.40"/><rect x="425.6" y="1003.5" width="8.6" height="29.0" fill="#FFFFFF" opacity="0.42"/><rect x="425.6" y="1069.4" width="8.6" height="29.0" fill="#FFFFFF" opacity="0.33"/><rect x="425.6" y="1135.4" width="8.6" height="29.0" fill="#FFFFFF" opacity="0.17"/><rect x="443.5" y="871.7" width="8.6" height="29.0" fill="#FFFFFF" opacity="0.20"/><rect x="443.5" y="1201.3" width="8.6" height="29.0" fill="#FFFFFF" opacity="0.42"/><rect x="478.6" y="964.8" width="8.4" height="26.9" fill="#FFFFFF" opacity="0.29"/><rect x="513.6" y="903.6" width="8.4" height="26.9" fill="#FFFFFF" opacity="0.16"/><rect x="513.6" y="1148.3" width="8.4" height="26.9" fill="#FFFFFF" opacity="0.24"/><rect x="531.1" y="964.8" width="8.4" height="26.9" fill="#FFFFFF" opacity="0.27"/><rect x="531.1" y="1148.3" width="8.4" height="26.9" fill="#FFFFFF" opacity="0.36"/><rect x="531.1" y="1209.5" width="8.4" height="26.9" fill="#FFFFFF" opacity="0.37"/><rect x="548.6" y="903.6" width="8.4" height="26.9" fill="#FFFFFF" opacity="0.31"/><rect x="548.6" y="1148.3" width="8.4" height="26.9" fill="#FFFFFF" opacity="0.39"/><rect x="548.6" y="1209.5" width="8.4" height="26.9" fill="#FFFFFF" opacity="0.25"/><rect x="548.6" y="1270.7" width="8.4" height="26.9" fill="#FFFFFF" opacity="0.27"/><rect x="566.2" y="903.6" width="8.4" height="26.9" fill="#FFFFFF" opacity="0.33"/><rect x="566.2" y="1087.2" width="8.4" height="26.9" fill="#FFFFFF" opacity="0.30"/><rect x="566.2" y="1148.3" width="8.4" height="26.9" fill="#FFFFFF" opacity="0.32"/><rect x="592.4" y="925.5" width="8.1" height="29.9" fill="#FFFFFF" opacity="0.29"/><rect x="592.4" y="1197.6" width="8.1" height="29.9" fill="#FFFFFF" opacity="0.25"/><rect x="609.3" y="1265.7" width="8.1" height="29.9" fill="#FFFFFF" opacity="0.45"/><rect x="626.2" y="1061.6" width="8.1" height="29.9" fill="#FFFFFF" opacity="0.29"/><rect x="626.2" y="1129.6" width="8.1" height="29.9" fill="#FFFFFF" opacity="0.35"/><rect x="643.1" y="1061.6" width="8.1" height="29.9" fill="#FFFFFF" opacity="0.32"/><rect x="643.1" y="1197.6" width="8.1" height="29.9" fill="#FFFFFF" opacity="0.45"/><rect x="660.0" y="925.5" width="8.1" height="29.9" fill="#FFFFFF" opacity="0.38"/><rect x="660.0" y="993.5" width="8.1" height="29.9" fill="#FFFFFF" opacity="0.36"/><rect x="660.0" y="1061.6" width="8.1" height="29.9" fill="#FFFFFF" opacity="0.28"/><rect x="691.4" y="379.6" width="7.6" height="28.0" fill="#FFFFFF" opacity="0.39"/><rect x="691.4" y="506.7" width="7.6" height="28.0" fill="#FFFFFF" opacity="0.45"/><rect x="691.4" y="887.8" width="7.6" height="28.0" fill="#FFFFFF" opacity="0.33"/><rect x="691.4" y="1014.9" width="7.6" height="28.0" fill="#FFFFFF" opacity="0.30"/><rect x="691.4" y="1205.5" width="7.6" height="28.0" fill="#FFFFFF" opacity="0.32"/><rect x="707.1" y="443.2" width="7.6" height="28.0" fill="#FFFFFF" opacity="0.38"/><rect x="707.1" y="506.7" width="7.6" height="28.0" fill="#FFFFFF" opacity="0.44"/><rect x="707.1" y="951.4" width="7.6" height="28.0" fill="#FFFFFF" opacity="0.26"/><rect x="707.1" y="1141.9" width="7.6" height="28.0" fill="#FFFFFF" opacity="0.21"/><rect x="707.1" y="1205.5" width="7.6" height="28.0" fill="#FFFFFF" opacity="0.34"/><rect x="722.9" y="379.6" width="7.6" height="28.0" fill="#FFFFFF" opacity="0.33"/><rect x="722.9" y="443.2" width="7.6" height="28.0" fill="#FFFFFF" opacity="0.24"/><rect x="722.9" y="506.7" width="7.6" height="28.0" fill="#FFFFFF" opacity="0.21"/><rect x="757.2" y="998.4" width="7.6" height="29.5" fill="#FFFFFF" opacity="0.32"/><rect x="757.2" y="1132.4" width="7.6" height="29.5" fill="#FFFFFF" opacity="0.40"/><rect x="757.2" y="1266.4" width="7.6" height="29.5" fill="#FFFFFF" opacity="0.28"/><rect x="773.1" y="998.4" width="7.6" height="29.5" fill="#FFFFFF" opacity="0.24"/><rect x="773.1" y="1132.4" width="7.6" height="29.5" fill="#FFFFFF" opacity="0.17"/><rect x="773.1" y="1266.4" width="7.6" height="29.5" fill="#FFFFFF" opacity="0.44"/><rect x="789.0" y="931.4" width="7.6" height="29.5" fill="#FFFFFF" opacity="0.38"/><rect x="789.0" y="998.4" width="7.6" height="29.5" fill="#FFFFFF" opacity="0.33"/><rect x="789.0" y="1065.4" width="7.6" height="29.5" fill="#FFFFFF" opacity="0.34"/><rect x="804.8" y="1132.4" width="7.6" height="29.5" fill="#FFFFFF" opacity="0.23"/><rect x="804.8" y="1266.4" width="7.6" height="29.5" fill="#FFFFFF" opacity="0.36"/><rect x="820.7" y="864.3" width="7.6" height="29.5" fill="#FFFFFF" opacity="0.26"/><rect x="820.7" y="998.4" width="7.6" height="29.5" fill="#FFFFFF" opacity="0.17"/><rect x="845.6" y="399.3" width="8.4" height="27.4" fill="#FFFFFF" opacity="0.37"/><rect x="845.6" y="710.3" width="8.4" height="27.4" fill="#FFFFFF" opacity="0.22"/><rect x="845.6" y="1145.6" width="8.4" height="27.4" fill="#FFFFFF" opacity="0.17"/><rect x="845.6" y="1207.8" width="8.4" height="27.4" fill="#FFFFFF" opacity="0.21"/><rect x="863.0" y="585.9" width="8.4" height="27.4" fill="#FFFFFF" opacity="0.44"/><rect x="863.0" y="1021.2" width="8.4" height="27.4" fill="#FFFFFF" opacity="0.35"/><rect x="880.5" y="461.5" width="8.4" height="27.4" fill="#FFFFFF" opacity="0.28"/><rect x="880.5" y="772.5" width="8.4" height="27.4" fill="#FFFFFF" opacity="0.40"/><rect x="880.5" y="834.6" width="8.4" height="27.4" fill="#FFFFFF" opacity="0.25"/><rect x="880.5" y="959.0" width="8.4" height="27.4" fill="#FFFFFF" opacity="0.17"/><rect x="880.5" y="1021.2" width="8.4" height="27.4" fill="#FFFFFF" opacity="0.22"/><rect x="880.5" y="1083.4" width="8.4" height="27.4" fill="#FFFFFF" opacity="0.29"/><rect x="880.5" y="1270.0" width="8.4" height="27.4" fill="#FFFFFF" opacity="0.34"/><rect x="904.3" y="892.6" width="8.0" height="27.6" fill="#FFFFFF" opacity="0.37"/><rect x="904.3" y="1081.1" width="8.0" height="27.6" fill="#FFFFFF" opacity="0.31"/><rect x="904.3" y="1206.7" width="8.0" height="27.6" fill="#FFFFFF" opacity="0.45"/><rect x="904.3" y="1269.5" width="8.0" height="27.6" fill="#FFFFFF" opacity="0.23"/><rect x="920.8" y="1081.1" width="8.0" height="27.6" fill="#FFFFFF" opacity="0.25"/><rect x="937.4" y="892.6" width="8.0" height="27.6" fill="#FFFFFF" opacity="0.28"/><rect x="937.4" y="1081.1" width="8.0" height="27.6" fill="#FFFFFF" opacity="0.17"/><rect x="937.4" y="1143.9" width="8.0" height="27.6" fill="#FFFFFF" opacity="0.26"/><rect x="937.4" y="1206.7" width="8.0" height="27.6" fill="#FFFFFF" opacity="0.25"/><rect x="954.0" y="955.4" width="8.0" height="27.6" fill="#FFFFFF" opacity="0.19"/><rect x="954.0" y="1206.7" width="8.0" height="27.6" fill="#FFFFFF" opacity="0.42"/><rect x="982.1" y="1134.0" width="7.3" height="29.2" fill="#FFFFFF" opacity="0.25"/><rect x="982.1" y="1266.9" width="7.3" height="29.2" fill="#FFFFFF" opacity="0.24"/><rect x="997.3" y="1067.6" width="7.3" height="29.2" fill="#FFFFFF" opacity="0.17"/><rect x="997.3" y="1266.9" width="7.3" height="29.2" fill="#FFFFFF" opacity="0.23"/><rect x="1036.5" y="890.5" width="8.6" height="27.8" fill="#FFFFFF" opacity="0.24"/><rect x="1036.5" y="1016.8" width="8.6" height="27.8" fill="#FFFFFF" opacity="0.33"/><rect x="1036.5" y="1143.0" width="8.6" height="27.8" fill="#FFFFFF" opacity="0.32"/><rect x="1036.5" y="1206.2" width="8.6" height="27.8" fill="#FFFFFF" opacity="0.40"/><rect x="1036.5" y="1269.3" width="8.6" height="27.8" fill="#FFFFFF" opacity="0.23"/><rect x="1054.5" y="890.5" width="8.6" height="27.8" fill="#FFFFFF" opacity="0.18"/><rect x="1054.5" y="1016.8" width="8.6" height="27.8" fill="#FFFFFF" opacity="0.27"/><rect x="1054.5" y="1206.2" width="8.6" height="27.8" fill="#FFFFFF" opacity="0.37"/><rect x="1072.5" y="890.5" width="8.6" height="27.8" fill="#FFFFFF" opacity="0.34"/><rect x="1072.5" y="953.6" width="8.6" height="27.8" fill="#FFFFFF" opacity="0.32"/><rect x="1072.5" y="1143.0" width="8.6" height="27.8" fill="#FFFFFF" opacity="0.27"/><rect x="1090.5" y="890.5" width="8.6" height="27.8" fill="#FFFFFF" opacity="0.31"/><rect x="1090.5" y="1016.8" width="8.6" height="27.8" fill="#FFFFFF" opacity="0.44"/><rect x="1122.7" y="1207.7" width="8.2" height="27.4" fill="#FFFFFF" opacity="0.44"/><rect x="1156.9" y="958.6" width="8.2" height="27.4" fill="#FFFFFF" opacity="0.33"/><rect x="1156.9" y="1020.9" width="8.2" height="27.4" fill="#FFFFFF" opacity="0.41"/><rect x="1156.9" y="1269.9" width="8.2" height="27.4" fill="#FFFFFF" opacity="0.25"/><rect x="1174.0" y="958.6" width="8.2" height="27.4" fill="#FFFFFF" opacity="0.31"/><rect x="1174.0" y="1020.9" width="8.2" height="27.4" fill="#FFFFFF" opacity="0.42"/><rect x="1174.0" y="1145.4" width="8.2" height="27.4" fill="#FFFFFF" opacity="0.29"/><rect x="1191.1" y="896.4" width="8.2" height="27.4" fill="#FFFFFF" opacity="0.23"/><rect x="1191.1" y="1269.9" width="8.2" height="27.4" fill="#FFFFFF" opacity="0.22"/><rect x="1208.2" y="896.4" width="8.2" height="27.4" fill="#FFFFFF" opacity="0.37"/><rect x="1208.2" y="958.6" width="8.2" height="27.4" fill="#FFFFFF" opacity="0.42"/><rect x="1208.2" y="1020.9" width="8.2" height="27.4" fill="#FFFFFF" opacity="0.38"/><rect x="1208.2" y="1083.1" width="8.2" height="27.4" fill="#FFFFFF" opacity="0.39"/></g><path d="M 0 1316.0 L 1200 1316.0" stroke="#FFFFFF" stroke-opacity="0.4" stroke-width="1"/><circle cx="600.0" cy="1148.0" r="600.0" fill="url(#glow-109)"/>
  <rect width="1200" height="1400" fill="url(#vig-domestic)"/>
  <rect width="1200" height="1400" filter="url(#grain-domestic)" opacity="0.55"/>
</svg>
